<?xml version="1.0" encoding="iso-8859-1"?>
<!-- Generator: Adobe Illustrator 19.0.0, SVG Export Plug-In . SVG Version: 6.00 Build 0)  -->
<svg version="1.1" id="Capa_1" xmlns="http://www.w3.org/2000/svg" xmlns:xlink="http://www.w3.org/1999/xlink" x="0px" y="0px"
	 viewBox="0 0 512 512" style="enable-background:new 0 0 512 512;" xml:space="preserve">
<path style="fill:#6F3114;" d="M255.877,59.771h-35.41c-9.693,0.009-18.558-5.478-22.867-14.164L179.083,8.575h143.775
	c28.277,0,51.196,22.919,51.196,51.196H255.877z"/>
<path style="fill:#37A3EF;" d="M234.46,217.625c7.79,9.343,18.285,16.05,30.035,19.198l-0.085,0.341v27.39
	c0,18.849,15.282,34.13,34.13,34.13c18.849,0,34.13-15.282,34.13-34.13v-28.499c9.027-2.858,17.227-7.859,23.891-14.591
	l10.239,0.427c3.985,4.65,7.372,9.778,10.068,15.273c0,0.085,0.085,0.171,0.085,0.256l6.57,21.332
	c0.333,1.92,0.529,3.857,0.597,5.802c1.434,22.774-7.927,44.89-25.257,59.728c-0.256,0.171-0.427,0.427-0.683,0.512
	c-1.22,1.092-2.5,2.125-3.84,3.072c-18.985,13.866-30.206,35.965-30.206,59.472v116.129h-51.196V387.338
	c0-23.507-11.22-45.607-30.205-59.472c-1.34-0.947-2.62-1.98-3.84-3.072c-0.256-0.085-0.427-0.341-0.683-0.512
	c-24.6-21.067-32.287-55.863-18.857-85.326c2.841-6.161,6.519-11.903,10.922-17.065L234.46,217.625z"/>
<g>
	<path style="fill:#FFCBA8;" d="M220.466,162.162V59.771h153.587v102.391c-0.341,5.111-0.341,10.248,0,15.359v1.707
		c0.043,15.845-6.254,31.059-17.492,42.236c-6.664,6.732-14.864,11.732-23.891,14.591c-5.922,1.92-12.116,2.901-18.345,2.901h-34.13
		c-5.307-0.009-10.589-0.725-15.7-2.133c-11.749-3.149-22.245-9.855-30.035-19.198c-8.831-10.504-13.772-23.738-13.993-37.458
		L220.466,162.162z M246.064,123.766c0,7.065,5.734,12.799,12.799,12.799c7.065,0,12.799-5.734,12.799-12.799
		s-5.734-12.799-12.799-12.799C251.798,110.967,246.064,116.701,246.064,123.766z M348.456,123.766
		c0-7.065-5.734-12.799-12.799-12.799s-12.799,5.734-12.799,12.799c0,7.065,5.734,12.799,12.799,12.799
		S348.456,130.831,348.456,123.766z"/>
	<path style="fill:#FFCBA8;" d="M264.409,264.554v-27.39l0.085-0.341c5.111,1.408,10.393,2.125,15.7,2.133h34.13
		c6.229,0,12.424-0.981,18.345-2.901v28.499c0,18.849-15.282,34.13-34.13,34.13C279.691,298.684,264.409,283.403,264.409,264.554z"
		/>
</g>
<g>
	<path style="fill:#F7B546;" d="M400.931,315.75v187.718h-42.663V324.88l-0.085-0.085c0.256-0.085,0.427-0.341,0.683-0.512
		c17.33-14.838,26.69-36.955,25.257-59.728c0.401-0.017,0.802,0.017,1.195,0.085L400.931,315.75z"/>
	<path style="fill:#F7B546;" d="M186.165,270.953l-7.082-31.997h40.274c-13.43,29.463-5.742,64.259,18.857,85.326
		c0.256,0.171,0.427,0.427,0.683,0.512l-0.085,0.085v178.588h-42.663V315.75L186.165,270.953z"/>
</g>
<g>
	<path style="fill:#07B671;" d="M443.594,324.282v179.185h-42.663V315.75l-15.615-51.11
		C417.732,265.356,443.628,291.858,443.594,324.282z"/>
	<path style="fill:#07B671;" d="M354.343,327.866c1.34-0.947,2.62-1.98,3.84-3.072l0.085,0.085v178.588h-34.13V387.338
		C324.138,363.831,335.358,341.732,354.343,327.866z"/>
	<path style="fill:#07B671;" d="M238.811,503.467V324.88l0.085-0.085c1.22,1.092,2.5,2.125,3.84,3.072
		c18.985,13.866,30.205,35.965,30.205,59.472v116.129L238.811,503.467L238.811,503.467z"/>
	<path style="fill:#07B671;" d="M196.148,315.75v187.718h-42.663V324.282c0.017-22.501,12.637-43.098,32.68-53.329L196.148,315.75z"
		/>
</g>
<path style="fill:#F7B546;" d="M179.083,238.956l7.082,31.997c-20.043,10.231-32.663,30.828-32.68,53.329v179.185H76.691V315.75
	c-0.137-42.279,34.02-76.657,76.299-76.794c0.162,0,0.333,0,0.495,0L179.083,238.956L179.083,238.956z"/>
<circle style="fill:#005A98;" cx="119.355" cy="187.718" r="17.065"/>
<path style="fill:#00497A;" d="M119.355,136.565c28.277-0.051,51.238,22.833,51.281,51.11c0.043,22.458-14.565,42.322-36.008,48.977
	c-4.94,1.544-10.094,2.321-15.273,2.304c-28.277,0-51.196-22.919-51.196-51.196S91.077,136.565,119.355,136.565z M136.42,187.76
	c0-9.429-7.637-17.065-17.065-17.065s-17.065,7.637-17.065,17.065s7.637,17.065,17.065,17.065
	C128.766,204.8,136.394,197.172,136.42,187.76z"/>
<path style="fill:#005A98;" d="M220.466,162.162v18.004c0.222,13.72,5.162,26.955,13.993,37.458l-4.181,4.266
	c-4.403,5.162-8.08,10.905-10.922,17.065h-65.872c-6.007-0.017-11.988,0.666-17.833,2.048l-1.024-4.352
	c27.006-8.388,42.091-37.074,33.704-64.08c-6.664-21.451-26.519-36.05-48.977-36.008h66.981c-0.043,6.792,2.671,13.319,7.509,18.089
	c4.795,4.804,11.297,7.509,18.089,7.509H220.466z"/>
<g>
	<path style="fill:#FFCBA8;" d="M382.586,110.967c14.139,0,25.598,11.459,25.598,25.598l0,0c0.043,6.792-2.671,13.319-7.509,18.089
		c-4.795,4.804-11.297,7.509-18.089,7.509h-8.533v-51.196L382.586,110.967z"/>
	<path style="fill:#FFCBA8;" d="M220.466,110.967v51.196h-8.533c-6.792,0-13.294-2.705-18.089-7.509
		c-4.838-4.77-7.551-11.297-7.509-18.089c0-14.139,11.459-25.598,25.598-25.598L220.466,110.967z"/>
</g>
<g>
	<circle style="fill:#020000;" cx="335.674" cy="123.766" r="12.799"/>
	<circle style="fill:#020000;" cx="258.863" cy="123.766" r="12.799"/>
</g>
<path style="fill:#EBB691;" d="M298.54,215.107h-0.068c-11.86,0.026-23.234-4.71-31.571-13.14L279,189.936
	c5.145,5.205,12.159,8.123,19.471,8.106l0,0c7.364,0.026,14.429-2.901,19.625-8.123l12.065,12.065
	C321.791,210.406,310.409,215.124,298.54,215.107z"/>
<circle cx="335.674" cy="123.766" r="12.799"/>
<circle cx="258.863" cy="123.766" r="12.799"/>
<path d="M452.127,503.467V324.282c-0.162-34.583-26.042-63.628-60.377-67.749c-1.186-7.79-3.515-15.359-6.92-22.466
	c-0.085-0.247-0.188-0.478-0.307-0.708c-3.012-6.143-6.792-11.877-11.246-17.065l-4.318,3.703
	c8.865-11.758,13.661-26.084,13.652-40.812v-2.278c-0.145-2.048-0.188-4.138-0.205-6.254h0.222c18.849,0,34.13-15.282,34.13-34.13
	s-15.282-34.13-34.13-34.13V59.728C382.586,26.758,355.87,0.043,322.9,0H179.083c-4.71,0-8.533,3.814-8.533,8.533
	c0,1.323,0.307,2.637,0.896,3.814l18.516,37.032c4.377,8.857,12.398,15.359,21.972,17.799v35.257
	c-15.512,0.06-29.037,10.572-32.919,25.598h-59.66c-32.987,0.137-59.617,26.989-59.481,59.976
	c0.111,27.211,18.601,50.906,44.975,57.629c-23.021,15.913-36.741,42.126-36.69,70.113v187.718c0,4.71,3.823,8.533,8.533,8.533
	h366.903C448.304,512,452.127,508.177,452.127,503.467z M392.398,317.021v177.914h-25.598V328.463
	c8.78-8.183,15.649-18.209,20.111-29.361L392.398,317.021z M204.476,313.89l-14.753-66.401h17.517
	c-7.944,29.199,0.922,60.402,23.038,81.06v166.386h-25.598V315.75C204.681,315.127,204.613,314.504,204.476,313.89z
	 M247.344,343.566c10.964,12.048,17.048,27.748,17.065,44.045v107.323h-17.065V343.566z M247.788,320.997
	c-1.075-0.751-2.099-1.57-3.08-2.44c-0.333-0.307-0.683-0.597-1.058-0.853c-21.545-18.627-28.277-49.199-16.553-75.155
	c2.09-4.411,4.667-8.584,7.679-12.432c6.203,5.478,13.354,9.778,21.101,12.688v21.75c0,23.559,19.105,42.663,42.663,42.663
	c23.559,0,42.663-19.105,42.663-42.663V241.9c7.432-3.157,14.224-7.628,20.06-13.208c2.986,3.626,5.563,7.56,7.679,11.749
	l6.22,20.342c0.222,1.425,0.367,2.867,0.427,4.309c1.323,20.06-6.903,39.566-22.185,52.621c-0.375,0.256-0.725,0.546-1.058,0.853
	c-0.973,0.87-1.997,1.681-3.063,2.432c-21.195,15.572-33.704,40.3-33.678,66.597v107.34h-34.13V387.338
	c-0.043-26.221-12.543-50.854-33.687-66.358L247.788,320.997L247.788,320.997z M272.942,246.994
	c2.406,0.299,4.829,0.461,7.253,0.495h34.13c3.285-0.017,6.562-0.273,9.813-0.768v17.833c0,14.139-11.459,25.598-25.598,25.598
	c-14.139,0-25.598-11.459-25.598-25.598V246.994L272.942,246.994z M332.67,387.338c0.06-16.203,6.143-31.81,17.065-43.772v151.369
	H332.67V387.338z M399.651,136.565c0.034,4.531-1.775,8.882-5.009,12.057c-3.191,3.217-7.534,5.017-12.057,5.009v-34.13
	C392.006,119.499,399.651,127.136,399.651,136.565z M365.521,68.304v93.296c-0.358,5.299-0.358,10.623,0,15.922v1.707
	c0.034,13.61-5.376,26.656-15.034,36.247c-5.717,5.751-12.739,10.034-20.478,12.466c-5.077,1.647-10.384,2.483-15.717,2.483h-34.13
	c-15.103-0.06-29.412-6.732-39.165-18.26c-7.534-8.985-11.766-20.273-11.997-31.997V68.304H365.521z M205.227,41.793l-12.338-24.685
	h129.969c20.265,0.026,37.731,14.284,41.81,34.13h-18.9l-14.505-21.801l-14.224,9.514l8.225,12.33h-22.185L288.574,29.48
	l-14.198,9.471l8.225,12.33h-22.185L245.91,29.48l-14.198,9.471l8.225,12.33h-19.471C213.99,51.29,208.077,47.604,205.227,41.793z
	 M211.934,119.499v34.13c-4.556,0.009-8.917-1.817-12.108-5.068c-3.208-3.166-5-7.492-4.957-11.997
	C194.868,127.136,202.505,119.499,211.934,119.499L211.934,119.499z M178.989,145.097c1.451,5.905,4.497,11.297,8.814,15.581
	c6.382,6.434,15.069,10.034,24.13,10.017v9.633c0.256,13.038,4.224,25.734,11.434,36.596c-3.447,4.189-6.476,8.712-9.045,13.499
	h-53.099c23.524-23.132,23.84-60.949,0.708-84.464c-0.282-0.29-0.572-0.58-0.862-0.862H178.989z M76.691,187.76
	c0.009-23.559,19.122-42.655,42.689-42.638s42.655,19.122,42.638,42.689c-0.009,18.661-12.15,35.154-29.967,40.709
	c-4.113,1.288-8.388,1.928-12.697,1.911C95.805,230.398,76.717,211.31,76.691,187.76z M85.224,315.75
	c-0.119-37.578,30.24-68.142,67.817-68.261c0.145,0,0.299,0,0.444,0h18.772l4.266,19.335
	c-19.668,12.483-31.579,34.165-31.571,57.459v170.652H85.224C85.224,494.935,85.224,315.75,85.224,315.75z M162.018,324.282
	c0.009-15.214,6.809-29.634,18.541-39.327l7.056,31.733v178.246h-25.598V324.282z M435.062,494.935h-25.598V315.75
	c0-0.845-0.128-1.681-0.375-2.492l-11.698-38.243c22.159,6.152,37.544,26.272,37.672,49.267L435.062,494.935L435.062,494.935z"/>
<path d="M144.952,187.76c0-14.139-11.459-25.598-25.598-25.598s-25.598,11.459-25.598,25.598s11.459,25.598,25.598,25.598
	S144.952,201.899,144.952,187.76z M110.822,187.76c0-4.71,3.823-8.533,8.533-8.533c4.71,0,8.533,3.823,8.533,8.533
	s-3.823,8.533-8.533,8.533C114.645,196.293,110.822,192.47,110.822,187.76z"/>
<path d="M298.437,215.107h0.102c11.886,0.034,23.286-4.693,31.665-13.123l-12.065-12.065c-5.196,5.222-12.261,8.149-19.625,8.123
	l0,0c-7.312,0.017-14.326-2.901-19.471-8.106l-12.099,12.031C275.263,210.38,286.603,215.116,298.437,215.107z"/>
<g>
</g>
<g>
</g>
<g>
</g>
<g>
</g>
<g>
</g>
<g>
</g>
<g>
</g>
<g>
</g>
<g>
</g>
<g>
</g>
<g>
</g>
<g>
</g>
<g>
</g>
<g>
</g>
<g>
</g>
</svg>
